:version 1.10
:name ASF
:units
  mass 1
  length 1
  angle deg
:documentation
  ASF file generated by Kaydara
:root
  axis xyz
  order  tx ty tz rx ry rz
  position 0 0 0
  orientation 0 0 0
:bonedata
  begin
    id 1
    name lfemurDummy
    direction 0.61522 -0.761478 0.204097
    length 5.68318
    axis 0 -0 0 xyz
  end
  begin
    id 2
    name lfemur
    direction 0.34202 -0.939693 -5.84747e-008
    length 16.9147
    axis 0 -0 20 xyz
    dof rx ry rz
    limits( -inf , inf )
( -inf , inf )
( -inf , inf )

  end
  begin
    id 3
    name ltibia
    direction 0.34202 -0.939693 1.20839e-009
    length 18.0532
    axis 0 -0 20 xyz
    dof rz ry rx
    limits( -inf , inf )
( -inf , inf )
( -inf , inf )

  end
  begin
    id 4
    name lfoot
    direction 0.0841971 -0.23133 0.969225
    length 5.23822
    axis -90 7.62852e-016 20 xyz
    dof ry rx rz
    limits( -inf , inf )
( -inf , inf )
( -inf , inf )

  end
  begin
    id 5
    name ltoes
    direction 0 0 0
    length 0
    axis 0 0 0 xyz
    dof rz ry rx
    limits( -inf , inf )
( -inf , inf )
( -inf , inf )

  end
  begin
    id 6
    name rfemurDummy
    direction -0.625247 -0.75382 0.202044
    length 5.74091
    axis 0 -0 0 xyz
  end
  begin
    id 7
    name rfemur
    direction -0.34202 -0.939693 -1.47013e-008
    length 16.4922
    axis 0 -0 -20 xyz
    dof rx ry rz
    limits( -inf , inf )
( -inf , inf )
( -inf , inf )

  end
  begin
    id 8
    name rtibia
    direction -0.34202 -0.939693 -7.74345e-010
    length 18.2421
    axis 0 -0 -20 xyz
    dof rz ry rx
    limits( -inf , inf )
( -inf , inf )
( -inf , inf )

  end
  begin
    id 9
    name rfoot
    direction -0.124331 -0.341598 0.931586
    length 5.45787
    axis -90 -7.62852e-016 -20 xyz
    dof ry rx rz
    limits( -inf , inf )
( -inf , inf )
( -inf , inf )

  end
  begin
    id 10
    name rtoes
    direction 0 0 0
    length 0
    axis 0 0 0 xyz
    dof rz ry rx
    limits( -inf , inf )
( -inf , inf )
( -inf , inf )

  end
  begin
    id 11
    name lowerbackDummy
    direction 0 0 0
    length 0
    axis 0 -0 0 xyz
  end
  begin
    id 12
    name lowerback
    direction -0.0218484 0.994884 -0.0986304
    length 4.45607
    axis 0 -0 0 xyz
    dof rx ry rz
    limits( -inf , inf )
( -inf , inf )
( -inf , inf )

  end
  begin
    id 13
    name upperback
    direction -0.00973057 0.999717 -0.0217111
    length 4.47449
    axis 0 -0 0 xyz
    dof rx ry rz
    limits( -inf , inf )
( -inf , inf )
( -inf , inf )

  end
  begin
    id 14
    name thorax
    direction -0.000928171 0.999699 0.0245198
    length 4.50973
    axis 0 -0 0 xyz
    dof rx ry rz
    limits( -inf , inf )
( -inf , inf )
( -inf , inf )

  end
  begin
    id 15
    name rclavicle
    direction -0.9009 0.425937 -0.0834055
    length 7.28587
    axis 0 -0 0 xyz
    dof rx ry rz
    limits( -inf , inf )
( -inf , inf )
( -inf , inf )

  end
  begin
    id 16
    name rhumerus
    direction -1 -2.23604e-007 -1.42637e-007
    length 13.5704
    axis 180 30 90 xyz
    dof rx ry rz
    limits( -inf , inf )
( -inf , inf )
( -inf , inf )

  end
  begin
    id 17
    name rradius
    direction -1 5.68281e-008 -4.4952e-007
    length 8.06782
    axis 180 30 90 xyz
    dof rz ry rx
    limits( -inf , inf )
( -inf , inf )
( -inf , inf )

  end
  begin
    id 18
    name rwrist
    direction -1 1.51393e-007 1.38143e-007
    length 4.03391
    axis -90 -90 0 xyz
    dof rz rx ry
    limits( -inf , inf )
( -inf , inf )
( -inf , inf )

  end
  begin
    id 19
    name rthumb
    direction 0 0 0
    length 0
    axis 0 0 0 xyz
    dof ry rx rz
    limits( -inf , inf )
( -inf , inf )
( -inf , inf )

  end
  begin
    id 20
    name rhand
    direction -1 -3.34077e-007 -5.59631e-007
    length 1.29744
    axis -90 -90 0 xyz
    dof ry rx rz
    limits( -inf , inf )
( -inf , inf )
( -inf , inf )

  end
  begin
    id 21
    name rfingers
    direction 0 0 0
    length 0
    axis 0 0 0 xyz
    dof rz ry rx
    limits( -inf , inf )
( -inf , inf )
( -inf , inf )

  end
  begin
    id 22
    name lclavicle
    direction 0.940017 0.332249 -0.0773232
    length 8.29589
    axis 0 -0 0 xyz
    dof rx ry rz
    limits( -inf , inf )
( -inf , inf )
( -inf , inf )

  end
  begin
    id 23
    name lhumerus
    direction 1 7.41158e-008 -1.44768e-008
    length 12.0042
    axis 180 -30 -90 xyz
    dof rx ry rz
    limits( -inf , inf )
( -inf , inf )
( -inf , inf )

  end
  begin
    id 24
    name lradius
    direction 1 -1.32972e-007 3.10821e-007
    length 8.1902
    axis 180 -30 -90 xyz
    dof rz ry rx
    limits( -inf , inf )
( -inf , inf )
( -inf , inf )

  end
  begin
    id 25
    name lwrist
    direction 1 3.08957e-007 4.01394e-007
    length 4.09509
    axis -90 90 0 xyz
    dof rz rx ry
    limits( -inf , inf )
( -inf , inf )
( -inf , inf )

  end
  begin
    id 26
    name lthumb
    direction 0 0 0
    length 0
    axis 0 0 0 xyz
    dof ry rx rz
    limits( -inf , inf )
( -inf , inf )
( -inf , inf )

  end
  begin
    id 27
    name lhand
    direction 1 -1.64125e-007 -6.99514e-007
    length 1.37229
    axis -90 90 0 xyz
    dof ry rx rz
    limits( -inf , inf )
( -inf , inf )
( -inf , inf )

  end
  begin
    id 28
    name lfingers
    direction 0 0 0
    length 0
    axis 0 0 0 xyz
    dof rz ry rx
    limits( -inf , inf )
( -inf , inf )
( -inf , inf )

  end
  begin
    id 29
    name lowerneck
    direction -0.030798 0.998024 0.0547665
    length 3.93918
    axis 0 -0 0 xyz
    dof rx ry rz
    limits( -inf , inf )
( -inf , inf )
( -inf , inf )

  end
  begin
    id 30
    name upperneck
    direction 0.0531588 0.996611 -0.0627736
    length 3.95491
    axis 0 -0 0 xyz
    dof rx ry rz
    limits( -inf , inf )
( -inf , inf )
( -inf , inf )

  end
  begin
    id 31
    name head
    direction 0 0 0
    length 0
    axis 0 0 0 xyz
    dof rx ry rz
    limits( -inf , inf )
( -inf , inf )
( -inf , inf )

  end
:hierarchy
  begin
    root lfemurDummy rfemurDummy lowerbackDummy
    lfemurDummy lfemur
    lfemur ltibia
    ltibia lfoot
    lfoot ltoes
    rfemurDummy rfemur
    rfemur rtibia
    rtibia rfoot
    rfoot rtoes
    lowerbackDummy lowerback
    lowerback upperback
    upperback thorax
    thorax rclavicle lclavicle lowerneck
    rclavicle rhumerus
    rhumerus rradius
    rradius rwrist
    rwrist rthumb rhand
    rhand rfingers
    lclavicle lhumerus
    lhumerus lradius
    lradius lwrist
    lwrist lthumb lhand
    lhand lfingers
    lowerneck upperneck
    upperneck head
  end

:SAMPLES-PER-SECOND 30
:FULLY-SPECIFIED
:DEGREES
14
root  10.21866686 39.08488957 -8.44048853 -2.822998047 -63.52600098 4.203994751
lowerback  11.48740005 -1.04926002 -1.679180026
upperback  5.924240112 -1.706060052 2.045459986
thorax  -0.1401560009 -0.9965999722 3.261790037
lowerneck  -0.3623110056 4.695819855 -3.188129902
upperneck  9.979860306 6.22300005 0.8229249716
head  3.127830029 2.952480078 0.9787070155
lclavicle  0 -9.442270133e-015 7.951389973e-016
lhumerus  -1.78579998 -14.11190033 90.68119812
lradius  2.459699715e-031 -2.533519558e-031 134.1529999
lwrist  -1.412450015e-030 -0 7.933720112
lhand  -1.496451383e-031 -27.76390076 20.11240005
lfingers  90 7.125020027 -90
lthumb  89.89689403 5.08795885 91.16245106
rclavicle  0 -9.442270133e-015 7.951389973e-016
rhumerus  11.67029953 18.07209969 -76.36180115
rradius  -2.090423068e-031 2.84586989e-031 126.2990036
rwrist  7.062250077e-031 -1.765562519e-031 -9.959369659
rhand  -7.920061211e-032 -33.2840004 9.303460121
rfingers  -90 -7.125020027 -90
rthumb  -92.93752616 -24.25625642 -97.11982154
rfemur  -28.27219963 22.69020081 -4.469359875
rtibia  -0 0 37.08010101
rfoot  -0 -16.74530029 -10.68869972
rtoes  5.373923086 19.29304026 -105.8922705
lfemur  -4.21009016 4.117469788 -11.98929977
ltibia  -0 0 58.90000153
lfoot  -0 4.269800186 -6.885890007
ltoes  -4.250644065 -19.5611806 -102.515957
15
root  10.51913359 39.09688935 -8.407977998 -2.712997437 -64.8030014 4.244995117
lowerback  11.0546999 -1.225659966 -1.916000009
upperback  5.889790058 -1.95796001 2.018069983
thorax  0.08339170367 -1.129809976 3.380549908
lowerneck  -0.7383729815 5.013090134 -2.818589926
upperneck  10.35550022 6.627980232 1.026960015
head  3.324019909 3.166610003 1.013890028
lclavicle  0 -9.442270133e-015 7.951389973e-016
lhumerus  -0.4571020007 -13.93220043 88.98349762
lradius  2.478863475e-031 -2.514772337e-031 134.5879974
lwrist  -7.062250077e-031 -1.765562519e-031 7.7709198
lhand  -1.496451383e-031 -27.76390076 20.11240005
lfingers  90 7.125020027 -90
lthumb  89.89689403 5.08795885 91.16245106
rclavicle  0 -9.442270133e-015 7.951389973e-016
rhumerus  12.13049984 17.61969948 -76.22730255
rradius  -2.104404461e-031 2.835546844e-031 126.5810013
rwrist  0 -0 -10.12100029
rhand  -7.920061211e-032 -33.2840004 9.303460121
rfingers  -90 -7.125020027 -90
rthumb  -92.93752616 -24.25625642 -97.11982154
rfemur  -28.8321991 22.15410042 -4.290259838
rtibia  -0 0 37.41040039
rfoot  -0 -17.26029968 -11.86130047
rtoes  5.373923086 19.29304026 -105.8922705
lfemur  -3.298259974 2.208570004 -12.9612999
ltibia  -0 0 56.26699829
lfoot  -0 4.165420055 -8.984729767
ltoes  -4.250644065 -19.5611806 -102.515957
16
root  10.82737765 39.02666588 -8.388555331 -2.498001099 -65.83000183 4.218994141
lowerback  10.58250046 -1.354279995 -2.122149944
upperback  5.859139919 -2.140249968 2.067179918
thorax  0.3315980136 -1.229470015 3.550299883
lowerneck  -1.149170041 5.150929928 -2.302969933
upperneck  10.60649967 6.815879822 0.8974990249
head  3.508130074 3.270040035 0.9114090204
lclavicle  0 -9.442270133e-015 7.951389973e-016
lhumerus  1.166020036 -13.93400002 87.35050201
lradius  2.492564474e-031 -2.501192991e-031 134.901001
lwrist  0 -0 7.334330082
lhand  -1.496451383e-031 -27.76390076 20.11240005
lfingers  90 7.125020027 -90
lthumb  89.89689403 5.08795885 91.16245106
rclavicle  0 -9.442270133e-015 7.951389973e-016
rhumerus  12.70829964 16.84379959 -75.95210266
rradius  -2.132312548e-031 2.814620264e-031 127.1470032
rwrist  7.062250077e-031 -0 -10.92800045
rhand  -7.920061211e-032 -33.2840004 9.303460121
rfingers  -90 -7.125020027 -90
rthumb  -92.93752616 -24.25625642 -97.11982154
rfemur  -29.45019913 21.34749985 -4.049300194
rtibia  -0 0 38.24890137
rfoot  -0 -17.41539955 -12.47500038
rtoes  5.373923086 19.29304026 -105.8922705
lfemur  -2.581670046 0.2865299881 -13.82540035
ltibia  -0 0 54.07089996
lfoot  -0 3.316740036 -11.09679985
ltoes  -4.250644065 -19.5611806 -102.515957
17
root  11.13244455 38.98844381 -8.365444123 -2.507995605 -66.70899963 4.399993896
lowerback  10.14369965 -1.412819982 -2.190740108
upperback  5.814189911 -2.215420008 2.0167799
thorax  0.5298020244 -1.268980026 3.528290033
lowerneck  -1.415639997 5.168109894 -1.942059994
upperneck  10.70110035 6.82626009 0.9355990291
head  3.603389978 3.289439917 0.8752359748
lclavicle  0 -9.442270133e-015 7.951389973e-016
lhumerus  3.060440063 -14.10169983 85.60520172
lradius  2.500627361e-031 -2.493131934e-031 135.0859985
lwrist  -7.062250077e-031 1.765562519e-031 7.092110157
lhand  -1.496451383e-031 -27.76390076 20.11240005
lfingers  90 7.125020027 -90
lthumb  89.89689403 5.08795885 91.16245106
rclavicle  0 -9.442270133e-015 7.951389973e-016
rhumerus  13.19139957 15.78750038 -75.81690216
rradius  -2.160987345e-031 2.792664988e-031 127.7330017
rwrist  1.412450015e-030 -0 -11.5486002
rhand  -7.920061211e-032 -33.2840004 9.303460121
rfingers  -90 -7.125020027 -90
rthumb  -92.93752616 -24.25625642 -97.11982154
rfemur  -29.93919945 20.54770088 -3.836070061
rtibia  -0 0 39.49760056
rfoot  -0 -17.22820091 -12.62679958
rtoes  5.373923086 19.29304026 -105.8922705
lfemur  -1.820469975 -1.518270016 -14.66049957
ltibia  -0 0 52.82080078
lfoot  -0 1.438320041 -12.42350006
ltoes  -4.250644065 -19.5611806 -102.515957
